<svg width="19" height="19" viewBox="0 0 19 19" fill="none" xmlns="http://www.w3.org/2000/svg">
<path fill-rule="evenodd" clip-rule="evenodd" d="M13.7275 0.451172H5.72754C2.96612 0.451172 0.727539 2.68975 0.727539 5.45117V13.4512C0.727539 16.2126 2.96612 18.4512 5.72754 18.4512H13.7275C16.4889 18.4512 18.7275 16.2126 18.7275 13.4512V5.45117C18.7275 2.68975 16.4889 0.451172 13.7275 0.451172ZM16.9775 13.4512C16.972 15.2438 15.5201 16.6957 13.7275 16.7012H5.72754C3.93489 16.6957 2.48303 15.2438 2.47754 13.4512V5.45117C2.48303 3.65852 3.93489 2.20666 5.72754 2.20117H13.7275C15.5201 2.20666 16.972 3.65852 16.9775 5.45117V13.4512ZM14.4775 5.70117C15.0298 5.70117 15.4775 5.25345 15.4775 4.70117C15.4775 4.14889 15.0298 3.70117 14.4775 3.70117C13.9252 3.70117 13.4775 4.14889 13.4775 4.70117C13.4775 5.25345 13.9252 5.70117 14.4775 5.70117ZM9.72754 4.95117C7.24226 4.95117 5.22754 6.96589 5.22754 9.45117C5.22754 11.9365 7.24226 13.9512 9.72754 13.9512C12.2128 13.9512 14.2275 11.9365 14.2275 9.45117C14.2302 8.25687 13.7569 7.11074 12.9124 6.26625C12.0679 5.42176 10.9218 4.94851 9.72754 4.95117ZM6.97754 9.45117C6.97754 10.97 8.20874 12.2012 9.72754 12.2012C11.2463 12.2012 12.4775 10.97 12.4775 9.45117C12.4775 7.93237 11.2463 6.70117 9.72754 6.70117C8.20874 6.70117 6.97754 7.93237 6.97754 9.45117Z" fill="#FBF8F3"/>
</svg>
