<svg width="25" height="25" viewBox="0 0 25 25" fill="none" xmlns="http://www.w3.org/2000/svg">
<path d="M17.3277 6.0285C16.6443 5.24802 16.2676 4.2459 16.2677 3.2085H13.1777V15.6085C13.1544 16.2797 12.8712 16.9156 12.388 17.382C11.9048 17.8484 11.2593 18.1089 10.5877 18.1085C9.1677 18.1085 7.9877 16.9485 7.9877 15.5085C7.9877 13.7885 9.6477 12.4985 11.3577 13.0285V9.8685C7.9077 9.4085 4.8877 12.0885 4.8877 15.5085C4.8877 18.8385 7.6477 21.2085 10.5777 21.2085C13.7177 21.2085 16.2677 18.6585 16.2677 15.5085V9.2185C17.5207 10.1183 19.0251 10.6011 20.5677 10.5985V7.5085C20.5677 7.5085 18.6877 7.5985 17.3277 6.0285Z" fill="#FBF8F3"/>
</svg>
