<svg width="25" height="25" viewBox="0 0 25 25" fill="none" xmlns="http://www.w3.org/2000/svg">
<path d="M22.3204 7.4115C22.2065 6.98891 21.9839 6.60351 21.6747 6.29367C21.3656 5.98383 20.9807 5.76036 20.5584 5.6455C18.9924 5.2155 12.7274 5.2085 12.7274 5.2085C12.7274 5.2085 6.46338 5.2015 4.89638 5.6125C4.47431 5.73265 4.0902 5.95928 3.78095 6.27064C3.47169 6.582 3.24767 6.96762 3.13038 7.3905C2.71738 8.9565 2.71338 12.2045 2.71338 12.2045C2.71338 12.2045 2.70938 15.4685 3.11938 17.0185C3.34938 17.8755 4.02438 18.5525 4.88238 18.7835C6.46438 19.2135 12.7124 19.2205 12.7124 19.2205C12.7124 19.2205 18.9774 19.2275 20.5434 18.8175C20.9659 18.7028 21.3511 18.4799 21.661 18.1707C21.9709 17.8615 22.1948 17.4767 22.3104 17.0545C22.7244 15.4895 22.7274 12.2425 22.7274 12.2425C22.7274 12.2425 22.7474 8.9775 22.3204 7.4115ZM10.7234 15.2135L10.7284 9.2135L15.9354 12.2185L10.7234 15.2135Z" fill="#FBF8F3"/>
</svg>
